<svg xmlns="http://www.w3.org/2000/svg" fill="none" height="100%" overflow="visible" preserveAspectRatio="none" style="display: block;" viewBox="0 0 85 16" width="100%" alt="">
<g id="nome">
<path d="M5.47753 0C6.76014 0 7.77869 0.143352 8.53317 0.430055C9.28765 0.716758 9.82334 1.21471 10.1402 1.92393C10.4722 2.63314 10.6382 3.6366 10.6382 4.9343C10.6382 6.21692 10.4797 7.22038 10.1629 7.94468C9.84597 8.65389 9.32538 9.15185 8.60108 9.43855C7.89187 9.71016 6.94122 9.84597 5.74914 9.84597C5.10029 9.84597 4.47407 9.83088 3.87049 9.8007C3.28199 9.77052 2.73876 9.72525 2.24081 9.66489C1.74285 9.60454 1.3128 9.54418 0.950645 9.48382C0.603584 9.40837 0.362151 9.34047 0.226344 9.28011L0.294247 7.96731C1.10909 7.96731 1.9541 7.96731 2.8293 7.96731C3.7045 7.96731 4.5797 7.96731 5.45489 7.96731C6.1792 7.95222 6.7526 7.86169 7.17511 7.6957C7.59762 7.52972 7.89941 7.22792 8.08049 6.79033C8.26156 6.35273 8.3521 5.73405 8.3521 4.9343C8.3521 4.11946 8.26156 3.49325 8.08049 3.05565C7.89941 2.61805 7.59762 2.31626 7.17511 2.15027C6.7526 1.96919 6.1792 1.87866 5.45489 1.87866C4.18737 1.87866 3.09337 1.8862 2.1729 1.90129C1.25244 1.91638 0.633764 1.93902 0.316882 1.96919L0 0.20371C0.573405 0.143352 1.11663 0.0980834 1.62968 0.0679037C2.14272 0.0377249 2.70104 0.0226355 3.30462 0.0226355C3.90821 0.00754516 4.63251 0 5.47753 0ZM2.26344 0.20371V15.8215H0V0.20371H2.26344Z" fill="var(--fill-0, #F3F4F6)"></path>
<path d="M19.0258 0.20371C19.222 0.20371 19.3955 0.264068 19.5464 0.384785C19.6973 0.490413 19.8029 0.633764 19.8633 0.814839L24.7976 15.8215H22.4436L18.5505 3.25936C18.4901 3.03301 18.4298 2.80667 18.3694 2.58032C18.3091 2.35398 18.2487 2.14273 18.1883 1.94656H17.5546C17.4942 2.14273 17.4339 2.35398 17.3735 2.58032C17.3131 2.80667 17.2452 3.03301 17.1698 3.25936L13.2767 15.8215H10.9453L15.8796 0.814839C15.94 0.633764 16.0456 0.490413 16.1965 0.384785C16.3474 0.264068 16.5209 0.20371 16.7171 0.20371H19.0258ZM21.8325 9.18957V11.0682H13.8652V9.18957H21.8325Z" fill="var(--fill-0, #F3F4F6)"></path>
<path d="M31.3918 0.20371V15.8215H29.1284V0.20371H31.3918ZM36.3714 0.20371V2.15027H24.1714V0.20371H36.3714Z" fill="var(--fill-0, #F3F4F6)"></path>
<path d="M41.0558 0.20371V15.8215H38.7924V0.20371H41.0558ZM48.1857 6.54135V8.42H40.8747V6.54135H48.1857ZM50.2228 0.20371V15.8215H47.9367V0.20371H50.2228Z" fill="var(--fill-0, #F3F4F6)"></path>
<path d="M59.2284 0.0226355C60.5261 0.0226355 61.5522 0.143352 62.3067 0.384785C63.0763 0.611129 63.627 1.01855 63.959 1.60704C64.3061 2.19554 64.4796 3.02547 64.4796 4.09683C64.4796 5.21346 64.2684 6.06602 63.8458 6.65452C63.4384 7.24301 62.7669 7.58253 61.8314 7.67307V7.7636C62.9933 7.86923 63.8081 8.27665 64.2759 8.98586C64.7437 9.69507 64.9776 10.6759 64.9776 11.9283C64.9776 12.9997 64.804 13.8296 64.457 14.4181C64.125 15.0066 63.5893 15.4216 62.8499 15.663C62.1105 15.8894 61.1373 16.0025 59.9301 16.0025C59.0096 16.0025 58.2174 15.995 57.5535 15.9799C56.9046 15.9799 56.301 15.9648 55.7427 15.9346C55.1844 15.9044 54.6035 15.8667 53.9999 15.8215L54.3168 14.0786C54.6487 14.0937 55.29 14.1088 56.2407 14.1239C57.1913 14.139 58.3004 14.1465 59.5679 14.1465C60.3526 14.1465 60.9713 14.0786 61.424 13.9428C61.8767 13.807 62.2011 13.5505 62.3972 13.1732C62.5934 12.796 62.6915 12.2452 62.6915 11.5209C62.6915 10.7363 62.5859 10.1402 62.3746 9.7328C62.1784 9.31029 61.8465 9.01604 61.3787 8.85006C60.9109 8.66898 60.2621 8.5709 59.4321 8.55581H54.2941V6.9035H59.4095C60.1338 6.88841 60.7072 6.81296 61.1297 6.67715C61.5522 6.54135 61.854 6.29237 62.0351 5.93022C62.2162 5.55298 62.3067 5.03239 62.3067 4.36844C62.3067 3.68941 62.2086 3.16882 62.0125 2.80667C61.8163 2.44452 61.4843 2.20308 61.0165 2.08237C60.5488 1.94656 59.915 1.87866 59.1153 1.87866C58.3608 1.87866 57.6817 1.87866 57.0782 1.87866C56.4746 1.87866 55.9464 1.8862 55.4937 1.90129C55.0411 1.90129 54.6487 1.91638 54.3168 1.94656L53.9999 0.20371C54.5431 0.143352 55.0561 0.105628 55.539 0.0905378C56.037 0.060359 56.5727 0.0452696 57.1461 0.0452696C57.7346 0.0301802 58.4287 0.0226355 59.2284 0.0226355ZM56.218 0.20371V15.8215H53.9999V0.20371H56.218Z" fill="var(--fill-0, #F3F4F6)"></path>
<path d="M70.3877 0.20371V15.8215H68.1243V0.20371H70.3877Z" fill="var(--fill-0, #F3F4F6)"></path>
<path d="M80.0204 0.20371V15.8215H77.757V0.20371H80.0204ZM85 0.20371V2.15027H72.8001V0.20371H85Z" fill="var(--fill-0, #F3F4F6)"></path>
</g>
</svg>