<svg xmlns="http://www.w3.org/2000/svg" viewBox="0 0 64 64" fill="none">
  <rect width="64" height="64" rx="16" fill="#0B111B" />
  <path
    d="M27.5864 10.8604C28.9301 10.0691 30.5855 10.0691 31.9292 10.8604L46.9099 19.6832C48.2536 20.4745 49.0813 21.9373 49.0813 23.5199V41.4801C49.0813 43.0627 48.2536 44.5255 46.9099 45.3168L31.9292 54.1396C30.5855 54.9309 28.9301 54.9309 27.5864 54.1396L26.9975 53.792V40H32.5198C38.6172 40 43.5607 35.0583 43.5607 28.962C43.5607 22.8658 38.6172 17.9241 32.5198 17.9241H14.5856L27.5864 10.8604Z"
    fill="#F3F4F6"
  />
  <path
    d="M18.7553 31.7177H32.5198C34.0404 31.7177 35.2727 30.4852 35.2727 28.9651C35.2727 27.445 34.0404 26.2127 32.5198 26.2127H10.495V41.4801C10.495 43.0627 11.3227 44.5255 12.6664 45.3168L18.7553 48.9044V31.7177Z"
    fill="#F3F4F6"
  />
</svg>
